<svg xmlns="http://www.w3.org/2000/svg" viewBox="0 0 400 500" width="400" height="500" role="img" aria-label="Serpentmere Robe">
<title>Serpentmere Robe</title>
<defs>
<radialGradient id="halo" cx="50%" cy="45%" r="55%">
<stop offset="0%" stop-color="#d9b26a" stop-opacity=".28"/>
<stop offset="55%" stop-color="#d9b26a" stop-opacity=".07"/>
<stop offset="100%" stop-color="#d9b26a" stop-opacity="0"/>
</radialGradient>
<linearGradient id="sheen" x1="0" y1="0" x2="0" y2="1">
<stop offset="0%" stop-color="#ffffff" stop-opacity=".10"/>
<stop offset="100%" stop-color="#ffffff" stop-opacity="0"/>
</linearGradient>

</defs>
<ellipse cx="200" cy="240" rx="185" ry="215" fill="url(#halo)"/>
<circle cx="289.5" cy="328.6" r="2.6" fill="#8fb4e8" opacity="0.56"/>
<circle cx="183.6" cy="98.2" r="1.4" fill="#f0dcae" opacity="0.30"/>
<circle cx="122.0" cy="269.8" r="3.1" fill="#f0dcae" opacity="0.67"/>
<circle cx="78.6" cy="311.4" r="2.9" fill="#f0dcae" opacity="0.63"/>
<circle cx="312.8" cy="378.8" r="1.7" fill="#8fb4e8" opacity="0.38"/>
<circle cx="116.1" cy="312.0" r="3.2" fill="#f0dcae" opacity="0.68"/>
<circle cx="343.6" cy="226.0" r="2.0" fill="#f0dcae" opacity="0.44"/>
<circle cx="116.0" cy="188.0" r="1.6" fill="#f0dcae" opacity="0.35"/>
<circle cx="163.0" cy="120.1" r="3.1" fill="#8fb4e8" opacity="0.66"/>
<circle cx="318.9" cy="289.1" r="2.9" fill="#f0dcae" opacity="0.63"/>
<circle cx="122.0" cy="189.6" r="1.6" fill="#f0dcae" opacity="0.35"/>
<circle cx="273.4" cy="69.7" r="2.4" fill="#f0dcae" opacity="0.52"/>
<circle cx="151.4" cy="208.0" r="2.6" fill="#8fb4e8" opacity="0.55"/>
<circle cx="339.4" cy="111.6" r="1.9" fill="#f0dcae" opacity="0.42"/>

<!-- sleeves -->
<path d="M 118 178 L 84 204 L 72 356 L 110 366 Z" fill="#1e2a2f" opacity=".78"/>
<path d="M 282 178 L 316 204 L 328 356 L 290 366 Z" fill="#1e2a2f" opacity=".78"/>
<path d="M 118 178 L 84 204 L 72 356 L 110 366 Z" fill="none" stroke="#d9b26a" stroke-opacity=".34" stroke-width="1.6"/>
<path d="M 282 178 L 316 204 L 328 356 L 290 366 Z" fill="none" stroke="#d9b26a" stroke-opacity=".34" stroke-width="1.6"/>
<!-- lining showing through the open front -->
<path d="M 150 150 L 250 150 L 304 446 L 96 446 Z" fill="#2c6553"/>
<!-- front panels -->
<path d="M 150 150 L 200 222 L 188 446 L 96 446 L 118 178 Z" fill="#1e2a2f"/>
<path d="M 250 150 L 200 222 L 212 446 L 304 446 L 282 178 Z" fill="#1e2a2f"/>
<path d="M 150 150 L 200 222 L 188 446 L 96 446 L 118 178 Z" fill="url(#sheen)"/>
<path d="M 150 150 L 200 222 L 188 446 L 96 446 L 118 178 Z" fill="none" stroke="#d9b26a" stroke-opacity=".46" stroke-width="1.8"/>
<path d="M 250 150 L 200 222 L 212 446 L 304 446 L 282 178 Z" fill="none" stroke="#d9b26a" stroke-opacity=".46" stroke-width="1.8"/>
<!-- hood -->
<path d="M 150 152 C 144 102 168 72 200 72 C 232 72 256 102 250 152 L 224 152 C 228 118 216 96 200 96 C 184 96 172 118 176 152 Z" fill="#1e2a2f"/>
<path d="M 150 152 C 144 102 168 72 200 72 C 232 72 256 102 250 152 L 224 152 C 228 118 216 96 200 96 C 184 96 172 118 176 152 Z" fill="none" stroke="#d9b26a" stroke-opacity=".5" stroke-width="1.8"/>
<path d="M 176 152 C 174 120 184 100 200 100 C 216 100 226 120 224 152" fill="none" stroke="#4c9c81" stroke-opacity=".8" stroke-width="2.4"/>
<!-- crest -->
<g transform="translate(158 258)">
<path d="M 0 -17 L 14 -7 L 14 10 L 0 19 L -14 10 L -14 -7 Z" fill="none" stroke="#d9b26a" stroke-opacity=".75" stroke-width="1.8"/>
<path d="M 0 -7 L 4 0 L 0 7 L -4 0 Z" fill="#d9b26a" opacity=".8"/>
</g>
<!-- hem folds -->
<path d="M 128 300 L 118 444" stroke="#d9b26a" stroke-opacity=".16" stroke-width="1.4" fill="none"/>
<path d="M 272 300 L 282 444" stroke="#d9b26a" stroke-opacity=".16" stroke-width="1.4" fill="none"/>
<path d="M 96 446 L 304 446" stroke="#d9b26a" stroke-opacity=".5" stroke-width="2" fill="none"/>

</svg>
