<svg xmlns="http://www.w3.org/2000/svg" viewBox="0 0 400 500" width="400" height="500" role="img" aria-label="Wax Seal Set">
<title>Wax Seal Set</title>
<defs>
<radialGradient id="halo" cx="50%" cy="45%" r="55%">
<stop offset="0%" stop-color="#d9b26a" stop-opacity=".28"/>
<stop offset="55%" stop-color="#d9b26a" stop-opacity=".07"/>
<stop offset="100%" stop-color="#d9b26a" stop-opacity="0"/>
</radialGradient>
<linearGradient id="sheen" x1="0" y1="0" x2="0" y2="1">
<stop offset="0%" stop-color="#ffffff" stop-opacity=".10"/>
<stop offset="100%" stop-color="#ffffff" stop-opacity="0"/>
</linearGradient>

</defs>
<ellipse cx="200" cy="240" rx="185" ry="215" fill="url(#halo)"/>
<circle cx="224.2" cy="385.5" r="2.9" fill="#8fb4e8" opacity="0.63"/>
<circle cx="309.3" cy="392.8" r="1.2" fill="#f0dcae" opacity="0.27"/>
<circle cx="219.8" cy="158.9" r="1.3" fill="#f0dcae" opacity="0.29"/>
<circle cx="156.3" cy="408.2" r="2.7" fill="#f0dcae" opacity="0.59"/>
<circle cx="324.5" cy="133.3" r="3.1" fill="#8fb4e8" opacity="0.67"/>
<circle cx="55.2" cy="130.7" r="2.5" fill="#f0dcae" opacity="0.55"/>
<circle cx="277.0" cy="208.8" r="3.1" fill="#f0dcae" opacity="0.67"/>
<circle cx="253.9" cy="426.0" r="1.2" fill="#f0dcae" opacity="0.27"/>
<circle cx="96.9" cy="367.3" r="1.4" fill="#8fb4e8" opacity="0.31"/>
<circle cx="351.2" cy="199.7" r="1.8" fill="#f0dcae" opacity="0.40"/>
<circle cx="324.8" cy="216.4" r="3.4" fill="#f0dcae" opacity="0.73"/>
<circle cx="199.3" cy="278.8" r="2.4" fill="#f0dcae" opacity="0.53"/>
<circle cx="107.6" cy="267.5" r="2.4" fill="#8fb4e8" opacity="0.51"/>
<circle cx="150.5" cy="78.3" r="1.8" fill="#f0dcae" opacity="0.40"/>

<!-- wax sticks -->
<path d="M 92 372 L 196 340 L 202 362 L 98 394 Z" fill="#7d2430" opacity=".85"/>
<path d="M 104 414 L 208 382 L 214 404 L 110 436 Z" fill="#7d2430" opacity=".7"/>
<g fill="none" stroke="#d9b26a" stroke-opacity=".3" stroke-width="1.4">
<path d="M 92 372 L 196 340 L 202 362 L 98 394 Z"/>
<path d="M 104 414 L 208 382 L 214 404 L 110 436 Z"/>
</g>
<!-- wax blob with impression -->
<path d="M 268 356 C 306 344 336 368 332 398 C 328 428 296 444 270 434 C 240 422 232 368 268 356 Z" fill="#7d2430"/>
<path d="M 268 356 C 306 344 336 368 332 398 C 328 428 296 444 270 434 C 240 422 232 368 268 356 Z" fill="url(#sheen)"/>
<g transform="translate(284 394)" opacity=".55">
<path d="M 0 -16 L 4 -5 L 16 -5 L 6 2 L 10 14 L 0 7 L -10 14 L -6 2 L -16 -5 L -4 -5 Z" fill="#1a0d0d"/>
</g>
<!-- stamp -->
<g transform="translate(200 120)">
<rect x="-13" y="-56" width="26" height="18" rx="9" fill="#8a6a34"/>
<rect x="-8" y="-40" width="16" height="120" fill="#8a6a34"/>
<rect x="-8" y="-40" width="16" height="120" fill="url(#sheen)"/>
<path d="M -34 80 L 34 80 L 30 116 L -30 116 Z" fill="#8a6a34"/>
<path d="M -34 80 L 34 80 L 30 116 L -30 116 Z" fill="url(#sheen)"/>
<g fill="none" stroke="#d9b26a" stroke-opacity=".45" stroke-width="1.6">
<rect x="-13" y="-56" width="26" height="18" rx="9"/>
<rect x="-8" y="-40" width="16" height="120"/>
<path d="M -34 80 L 34 80 L 30 116 L -30 116 Z"/>
</g>
<path d="M -30 116 L 30 116" stroke="#f0dcae" stroke-opacity=".6" stroke-width="3"/>
</g>

</svg>
